<svg id="Capa_1" data-name="Capa 1" xmlns="http://www.w3.org/2000/svg" viewBox="0 0 512 486.65"><defs><style>.cls-1{fill:#fff;}</style></defs><title>white</title><path class="cls-1" d="M503.4,228.88l-43.25-39.41V58.79a15.06,15.06,0,0,0-15.06-15.06H341a15.06,15.06,0,0,0-15.06,15.06v8.37L273.68,19.57a26.12,26.12,0,0,0-35.36,0L8.6,228.88a26.26,26.26,0,0,0,17.68,45.67H63V484.27A15.05,15.05,0,0,0,78,499.32H203.94A15.05,15.05,0,0,0,219,484.27V356.93h74V484.27a15.06,15.06,0,0,0,15.06,15.06H434A15.06,15.06,0,0,0,449,484.27V274.55h36.7a26.26,26.26,0,0,0,17.68-45.67ZM434,244.43a15.05,15.05,0,0,0-15,15.06V469.21h-95.8V341.87a15.05,15.05,0,0,0-15.05-15.05H203.94a15.06,15.06,0,0,0-15.06,15.05V469.21H93.08V259.49a15.05,15.05,0,0,0-15-15.06H36.24L256,44.19l74.84,68.19A15,15,0,0,0,356,101.25V73.85h74V196.12A15,15,0,0,0,435,207.25l40.81,37.18Z" transform="translate(0 -12.68)"/></svg>